<svg xmlns="http://www.w3.org/2000/svg" viewBox="0 0 120 108"><defs><style>.cls-1{fill:#fff;}</style></defs><title>hub</title><g id="Layer_2" data-name="Layer 2"><g id="Layer_1-2" data-name="Layer 1"><path class="cls-1" d="M106,40A14,14,0,0,0,92.16,52H79.9a20,20,0,0,0-8.26-14.23L77.83,27A14,14,0,1,0,69,14a14,14,0,0,0,5.37,11L68.18,35.77a19.79,19.79,0,0,0-16.36,0L45.63,25A14,14,0,1,0,37,28a13.88,13.88,0,0,0,5.17-1l6.19,10.77A20,20,0,0,0,40.1,52H27.84a14,14,0,1,0,0,4H40.1a20,20,0,0,0,8.26,14.23L42.17,81a14.07,14.07,0,1,0,3.46,2l6.19-10.77a19.79,19.79,0,0,0,16.36,0L74.37,83a14,14,0,1,0,3.46-2L71.64,70.23A20,20,0,0,0,79.9,56H92.16A14,14,0,1,0,106,40ZM73,14a10,10,0,1,1,6.85,9.48A10,10,0,0,1,73,14ZM43.61,21.48A10,10,0,0,1,37,24a10,10,0,1,1,6.61-2.52ZM23.8,56a10,10,0,1,1,0-4,10.1,10.1,0,0,1,0,4ZM47,94a10,10,0,1,1-6.85-9.48A10,10,0,0,1,47,94Zm29.39-7.48A10,10,0,0,1,83,84a10,10,0,1,1-6.61,2.52ZM75.86,56a16,16,0,0,1-31.72,0,14.36,14.36,0,0,1,0-4,16,16,0,0,1,31.72,0,14.36,14.36,0,0,1,0,4ZM106,64a10,10,0,0,1-9.8-8,10.1,10.1,0,0,1,0-4A10,10,0,1,1,106,64Z"/></g></g></svg>