<svg xmlns="http://www.w3.org/2000/svg" viewBox="0 0 108 108"><defs><style>.cls-1{fill:#fff;}</style></defs><title>account</title><g id="Layer_2" data-name="Layer 2"><g id="Layer_1-2" data-name="Layer 1"><path class="cls-1" d="M54,16A18,18,0,1,1,36,34,18,18,0,0,1,54,16m0-4A22,22,0,1,0,76,34,22,22,0,0,0,54,12ZM54,0A54,54,0,0,0,18,94.24c1.28,1.14,2.61,2.23,4,3.25a54,54,0,0,0,64,0c1.39-1,2.72-2.11,4-3.25A54,54,0,0,0,54,0Zm0,104A49.76,49.76,0,0,1,22,92.38V78.43A10.2,10.2,0,0,1,32.19,68.24H75.81A10.2,10.2,0,0,1,86,78.43V92.38A49.76,49.76,0,0,1,54,104ZM90,88.65V78.43A14.19,14.19,0,0,0,75.81,64.24H32.19A14.19,14.19,0,0,0,18,78.43V88.65a50,50,0,1,1,72,0Z"/></g></g></svg>