<svg xmlns="http://www.w3.org/2000/svg" viewBox="0 0 108 88"><defs><style>.cls-1{fill:#fff;}</style></defs><title>dashboard</title><g id="Layer_2" data-name="Layer 2"><g id="Layer_1-2" data-name="Layer 1"><path class="cls-1" d="M101,4a3,3,0,0,1,3,3V69a3,3,0,0,1-3,3H7a3,3,0,0,1-3-3V7A3,3,0,0,1,7,4h94m0-4H7A7,7,0,0,0,0,7V69a7,7,0,0,0,7,7h94a7,7,0,0,0,7-7V7a7,7,0,0,0-7-7Z"/><path class="cls-1" d="M28,13.94a12,12,0,1,1-12,12,12,12,0,0,1,12-12m0-4a16,16,0,1,0,16,16,16,16,0,0,0-16-16Z"/><rect class="cls-1" x="26" y="12" width="4" height="16"/><rect class="cls-1" x="26" y="24" width="16" height="4"/><rect class="cls-1" x="62.5" y="72" width="4" height="16"/><rect class="cls-1" x="41.5" y="72" width="4" height="16"/><rect class="cls-1" x="52" y="34" width="4" height="8"/><rect class="cls-1" x="60" y="26" width="4" height="16"/><rect class="cls-1" x="68" y="10" width="4" height="32"/><rect class="cls-1" x="76" y="18" width="4" height="24"/><rect class="cls-1" x="84" y="14" width="4" height="28"/><rect class="cls-1" x="92" y="22" width="4" height="20"/><rect class="cls-1" x="52" y="38" width="44" height="4"/><rect class="cls-1" x="8" y="48" width="92" height="4"/><rect class="cls-1" x="24" y="84" width="60" height="4"/><rect class="cls-1" x="44" y="56" width="40" height="4"/><rect class="cls-1" x="44" y="64" width="17" height="4"/><rect class="cls-1" x="65" y="64" width="19" height="4"/><path class="cls-1" d="M36,60v4H12V60H36m4-4H8V68H40V56Z"/><path class="cls-1" d="M96,60v4H92V60h4m4-4H88V68h12V56Z"/></g></g></svg>